# xmcd
#
# Track frame offsets: 
#        150
#        2967
#        15475
#        34538
#        47774
#        63229
#        74742
#        89467
#        103523
#        125185
#        147994
#        162117
#
# Disc length: 2295 seconds
#
# Revision: 0
# Processed by: cddbd v1.5.2PL0 Copyright (c) Steve Scherf et al.
# Submitted via: ExactAudioCopy v0.95b3
#
DISCID=a308f50c
DTITLE=Scott H. Biram - something's wrong_lost forever
DYEAR=2009
DGENRE=Blues
TTITLE0=Hospital Escape
TTITLE1=Time Flies
TTITLE2=Sinkin' Down
TTITLE3=Still Drunk, Still Crazy, Still Blue
TTITLE4=Ain't It A Shame
TTITLE5=Judgement Day
TTITLE6=Draggin' Down The Line
TTITLE7=I Fell So Good
TTITLE8=Wildside
TTITLE9=Hard Time
TTITLE10=The Wishing Well
TTITLE11=Go Down Ol' Hannah
EXTD=
EXTT0=
EXTT1=
EXTT2=
EXTT3=
EXTT4=
EXTT5=
EXTT6=
EXTT7=
EXTT8=
EXTT9=
EXTT10=
EXTT11=
PLAYORDER=
